<?xml version="1.0" encoding="utf-8"?>
<!-- Generator: Adobe Illustrator 17.0.1, SVG Export Plug-In . SVG Version: 6.00 Build 0)  -->
<!DOCTYPE svg PUBLIC "-//W3C//DTD SVG 1.1//EN" "http://www.w3.org/Graphics/SVG/1.1/DTD/svg11.dtd">
<svg version="1.1" id="Слой_1" xmlns="http://www.w3.org/2000/svg" xmlns:xlink="http://www.w3.org/1999/xlink" x="0px" y="0px"
	 width="130.999px" height="48.003px" viewBox="0.001 0 130.999 48.003" enable-background="new 0.001 0 130.999 48.003"
	 xml:space="preserve">
<g>
	<path fill="#292F42" d="M67.542,20.39h-3.845v-2.188h10.471v2.188h-3.845v9.414h-2.781V20.39z"/>
	<path fill="#292F42" d="M83.342,27.319h-5.579l-1.064,2.486h-2.85l5.356-11.602h2.746l5.373,11.602h-2.918L83.342,27.319z
		 M82.467,25.28l-1.905-4.442l-1.906,4.442H82.467z"/>
	<path fill="#292F42" d="M95.889,29.805l-2.901-4.028l-2.85,4.028h-3.193l4.446-5.901l-4.223-5.702h3.159l2.764,3.762l2.712-3.762
		h3.004l-4.188,5.602l4.48,6H95.889z"/>
	<path fill="#292F42" d="M108.624,23.822h2.541v4.707c-0.652,0.475-1.408,0.84-2.266,1.094c-0.858,0.254-1.722,0.381-2.592,0.381
		c-1.247,0-2.369-0.254-3.365-0.762c-0.995-0.519-1.779-1.232-2.351-2.138c-0.561-0.917-0.841-1.95-0.841-3.099
		c0-1.149,0.28-2.177,0.841-3.083c0.572-0.917,1.362-1.63,2.369-2.138c1.007-0.519,2.14-0.779,3.398-0.779
		c1.053,0,2.009,0.171,2.867,0.514c0.858,0.343,1.579,0.84,2.163,1.492l-1.785,1.591c-0.858-0.873-1.894-1.309-3.107-1.309
		c-0.767,0-1.448,0.155-2.043,0.464c-0.595,0.309-1.058,0.746-1.39,1.309c-0.332,0.563-0.498,1.21-0.498,1.939
		c0,0.718,0.166,1.359,0.498,1.923c0.332,0.564,0.789,1.006,1.373,1.326c0.595,0.309,1.27,0.464,2.025,0.464
		c0.802,0,1.523-0.166,2.163-0.497V23.822z"/>
	<path fill="#292F42" d="M114.116,18.203h2.781v11.602h-2.781V18.203z"/>
	<path fill="#292F42" d="M128.236,23.822h2.54v4.707c-0.652,0.475-1.407,0.84-2.266,1.094c-0.858,0.254-1.722,0.381-2.592,0.381
		c-1.247,0-2.368-0.254-3.364-0.762c-0.996-0.519-1.78-1.232-2.352-2.138c-0.561-0.917-0.841-1.95-0.841-3.099
		c0-1.149,0.28-2.177,0.841-3.083c0.572-0.917,1.362-1.63,2.369-2.138c1.007-0.519,2.14-0.779,3.399-0.779
		c1.053,0,2.008,0.171,2.867,0.514c0.858,0.343,1.579,0.84,2.163,1.492l-1.786,1.591c-0.858-0.873-1.894-1.309-3.107-1.309
		c-0.766,0-1.447,0.155-2.042,0.464c-0.596,0.309-1.059,0.746-1.391,1.309c-0.332,0.563-0.498,1.21-0.498,1.939
		c0,0.718,0.166,1.359,0.498,1.923c0.332,0.564,0.79,1.006,1.373,1.326c0.595,0.309,1.271,0.464,2.026,0.464
		c0.801,0,1.522-0.166,2.163-0.497V23.822z"/>
	
		<linearGradient id="SVGID_1_" gradientUnits="userSpaceOnUse" x1="166.9451" y1="-136.7987" x2="136.6091" y2="-145.1196" gradientTransform="matrix(1 0 0 -1 -123.32 -107.39)">
		<stop  offset="0" style="stop-color:#B4D57C"/>
		<stop  offset="1" style="stop-color:#86BE26"/>
	</linearGradient>
	<path fill="url(#SVGID_1_)" d="M14.001,33.384L10.18,28.34c-1.356,2.041-2.444,6.787-1.356,10.206
		c1.528,4.803,6.779,7.176,8.505,8.165c3.353,1.921,6.82,1.281,8.135,0.72c3.164-1.761,10.403-5.788,14.051-7.805
		c3.648-2.017,4.807-5.003,4.93-6.244V16.093l-0.247,3.362l-3.081,7.204l-5.3,6.004l-10.354,3.602
		C20.752,37.253,18.239,36.658,14.001,33.384z"/>
	
		<linearGradient id="SVGID_2_" gradientUnits="userSpaceOnUse" x1="167.8227" y1="-113.1634" x2="138.0548" y2="-148.8746" gradientTransform="matrix(1 0 0 -1 -123.32 -107.39)">
		<stop  offset="0.3765" style="stop-color:#C4E58B"/>
		<stop  offset="1" style="stop-color:#B4D57C"/>
	</linearGradient>
	<path fill="url(#SVGID_2_)" d="M31.504,23.295c-9.491,10.807-21.324,4.923-21.324,4.923c2.835,7.084,11.977,12.368,24.405,5.764
		c10.847-5.764,9.861-15.747,9.861-17.651c0-3.458-2.219-5.924-3.328-6.724c-1.109-0.8-9.614-5.283-9.614-5.283
		S40.995,12.488,31.504,23.295z"/>
	
		<linearGradient id="SVGID_3_" gradientUnits="userSpaceOnUse" x1="152.8744" y1="-115.9708" x2="121.3668" y2="-130.7633" gradientTransform="matrix(1 0 0 -1 -123.32 -107.39)">
		<stop  offset="0" style="stop-color:#B4D57C"/>
		<stop  offset="0.685" style="stop-color:#86BE26"/>
	</linearGradient>
	<path fill="url(#SVGID_3_)" d="M30.467,14.62l3.798,4.713c1.356-2.041,2.467-6.456,1.379-9.876
		c-1.528-4.803-6.779-7.176-8.505-8.165c-3.353-1.921-6.82-1.281-8.135-0.72C15.841,2.332,8.601,6.359,4.953,8.376
		c-3.648,2.017-4.807,5.003-4.93,6.244V31.91l0.247-3.362l3.081-7.205l5.3-6.004l10.354-3.602L30.467,14.62z"/>
	
		<linearGradient id="SVGID_4_" gradientUnits="userSpaceOnUse" x1="125.3491" y1="-143.6613" x2="151.7853" y2="-121.8527" gradientTransform="matrix(1 0 0 -1 -123.32 -107.39)">
		<stop  offset="0" style="stop-color:#C4E58B"/>
		<stop  offset="0.8767" style="stop-color:#86BE26"/>
	</linearGradient>
	<path fill="url(#SVGID_4_)" d="M12.966,24.705c9.491-10.807,21.3-5.374,21.3-5.374c-2.835-7.084-11.953-11.917-24.382-5.313
		C-0.962,19.782,0.024,29.766,0.024,31.67c0,3.458,2.219,5.924,3.328,6.724c1.109,0.8,9.344,5.433,9.344,5.433
		S3.476,35.512,12.966,24.705z"/>
</g>
</svg>
