<?xml version="1.0" encoding="utf-8"?>
<!-- Generator: Adobe Illustrator 17.0.1, SVG Export Plug-In . SVG Version: 6.00 Build 0)  -->
<!DOCTYPE svg PUBLIC "-//W3C//DTD SVG 1.1//EN" "http://www.w3.org/Graphics/SVG/1.1/DTD/svg11.dtd">
<svg version="1.1" id="Слой_1" xmlns="http://www.w3.org/2000/svg" xmlns:xlink="http://www.w3.org/1999/xlink" x="0px" y="0px"
	 width="56px" height="52.135px" viewBox="0 0 56 52.135" enable-background="new 0 0 56 52.135" xml:space="preserve">
<g>
	<g>
		<defs>
			<rect id="SVGID_1_" y="0" width="56" height="52.135"/>
		</defs>
		<clipPath id="SVGID_2_">
			<use xlink:href="#SVGID_1_"  overflow="visible"/>
		</clipPath>
		<g clip-path="url(#SVGID_2_)">
			<path fill="#86BE26" d="M48.342,22.866c0-0.501-0.392-0.927-0.923-1.005l-2.717-0.401l-1.399-3.141l1.615-2.073
				c0.316-0.405,0.268-0.964-0.112-1.318l-4.854-4.515c-0.38-0.354-0.981-0.398-1.416-0.103l-2.224,1.504l-3.376-1.301l-0.432-2.528
				c-0.084-0.494-0.542-0.858-1.08-0.858H28c-0.604,0-1.094,0.456-1.094,1.018S27.396,9.164,28,9.164h2.49l0.382,2.232
				c0.06,0.35,0.311,0.645,0.662,0.781l4.508,1.736c0.351,0.135,0.753,0.091,1.061-0.117l1.964-1.328l3.532,3.286l-1.426,1.831
				c-0.223,0.287-0.271,0.661-0.125,0.988l1.868,4.194c0.146,0.327,0.463,0.56,0.839,0.616l2.399,0.354l0.002,4.649l-2.397,0.355
				c-0.376,0.056-0.693,0.289-0.839,0.616l-1.865,4.197c-0.145,0.327-0.098,0.701,0.126,0.988l1.427,1.829l-3.53,3.289l-1.966-1.328
				c-0.308-0.208-0.71-0.252-1.061-0.116l-4.505,1.739c-0.351,0.136-0.602,0.431-0.661,0.781l-0.38,2.234H28
				c-0.604,0-1.094,0.456-1.094,1.018c0,0.562,0.49,1.018,1.094,1.018h3.438c0.538,0,0.996-0.364,1.08-0.859l0.431-2.53l3.374-1.303
				l2.226,1.504c0.435,0.294,1.036,0.25,1.416-0.104l4.85-4.518c0.38-0.354,0.427-0.913,0.111-1.318l-1.616-2.071l1.397-3.143
				l2.715-0.402c0.531-0.079,0.922-0.505,0.922-1.006L48.342,22.866z"/>
			<path fill="#86BE26" d="M27.99,32.73c-0.599,0.005-1.084,0.459-1.084,1.018c0,0.562,0.49,1.018,1.094,1.018
				c0.014,0,0.037,0,0.051-0.001c0.604-0.022,1.074-0.495,1.051-1.057C29.078,33.154,28.582,32.724,27.99,32.73z"/>
			<path fill="#86BE26" d="M28,17.369c-0.604,0-1.094,0.456-1.094,1.018c0,0.562,0.49,1.018,1.094,1.018
				c3.946,0,7.157,2.989,7.157,6.663c0,2.48-1.465,4.74-3.823,5.898c-0.534,0.262-0.739,0.878-0.457,1.376
				c0.196,0.346,0.576,0.543,0.968,0.543c0.172,0,0.347-0.038,0.509-0.118c3.078-1.512,4.99-4.462,4.99-7.699
				C37.344,21.271,33.152,17.369,28,17.369z"/>
			<path fill="#86BE26" d="M6.344,45.211h-5.25C0.49,45.211,0,45.667,0,46.229v4.888c0,0.562,0.49,1.018,1.094,1.018h5.25
				c0.604,0,1.094-0.456,1.094-1.018v-4.888C7.438,45.667,6.948,45.211,6.344,45.211z M5.25,50.099H2.188v-2.851H5.25V50.099z"/>
			<path fill="#86BE26" d="M54.906,45.211h-5.25c-0.604,0-1.094,0.456-1.094,1.018v4.888c0,0.562,0.49,1.018,1.094,1.018h5.25
				c0.604,0,1.094-0.456,1.094-1.018v-4.888C56,45.667,55.51,45.211,54.906,45.211z M53.813,50.099H50.75v-2.851h3.063V50.099z"/>
			<path fill="#86BE26" d="M6.344,0h-5.25C0.49,0,0,0.456,0,1.018v4.888c0,0.562,0.49,1.018,1.094,1.018h5.25
				c0.604,0,1.094-0.456,1.094-1.018V1.018C7.438,0.456,6.948,0,6.344,0z M5.25,4.888H2.188V2.037H5.25V4.888z"/>
			<path fill="#86BE26" d="M54.906,0h-5.25c-0.604,0-1.094,0.456-1.094,1.018v4.888c0,0.562,0.49,1.018,1.094,1.018h5.25
				C55.51,6.924,56,6.468,56,5.906V1.018C56,0.456,55.51,0,54.906,0z M53.813,4.888H50.75V2.037h3.063V4.888z"/>
			<path fill="#86BE26" d="M52.281,39.466c-0.604,0-1.094,0.456-1.094,1.018v1.018c0,0.562,0.49,1.018,1.094,1.018
				c0.604,0,1.094-0.456,1.094-1.018v-1.018C53.375,39.922,52.885,39.466,52.281,39.466z"/>
			<path fill="#86BE26" d="M52.281,34.374c-0.604,0-1.094,0.456-1.094,1.018v1.018c0,0.562,0.49,1.018,1.094,1.018
				c0.604,0,1.094-0.456,1.094-1.018v-1.018C53.375,34.83,52.885,34.374,52.281,34.374z"/>
			<path fill="#86BE26" d="M52.281,9.778c-0.604,0-1.094,0.456-1.094,1.018v0.157c0,0.562,0.49,1.018,1.094,1.018
				c0.604,0,1.094-0.456,1.094-1.018v-0.157C53.375,10.233,52.885,9.778,52.281,9.778z"/>
			<path fill="#86BE26" d="M52.281,29.283c-0.604,0-1.094,0.456-1.094,1.018v1.018c0,0.562,0.49,1.018,1.094,1.018
				c0.604,0,1.094-0.456,1.094-1.018v-1.018C53.375,29.739,52.885,29.283,52.281,29.283z"/>
			<path fill="#86BE26" d="M52.281,14.009c-0.604,0-1.094,0.456-1.094,1.018v1.018c0,0.562,0.49,1.018,1.094,1.018
				c0.604,0,1.094-0.456,1.094-1.018v-1.018C53.375,14.465,52.885,14.009,52.281,14.009z"/>
			<path fill="#86BE26" d="M52.281,24.192c-0.604,0-1.094,0.456-1.094,1.018v1.018c0,0.562,0.49,1.018,1.094,1.018
				c0.604,0,1.094-0.456,1.094-1.018V25.21C53.375,24.648,52.885,24.192,52.281,24.192z"/>
			<path fill="#86BE26" d="M52.281,19.1c-0.604,0-1.094,0.456-1.094,1.018v1.018c0,0.562,0.49,1.018,1.094,1.018
				c0.604,0,1.094-0.456,1.094-1.018v-1.018C53.375,19.556,52.885,19.1,52.281,19.1z"/>
			<path fill="#86BE26" d="M3.719,24.192c-0.604,0-1.094,0.456-1.094,1.018v1.018c0,0.562,0.49,1.018,1.094,1.018
				s1.094-0.456,1.094-1.018V25.21C4.813,24.648,4.323,24.192,3.719,24.192z"/>
			<path fill="#86BE26" d="M3.719,29.283c-0.604,0-1.094,0.456-1.094,1.018v1.018c0,0.562,0.49,1.018,1.094,1.018
				s1.094-0.456,1.094-1.018v-1.018C4.813,29.739,4.323,29.283,3.719,29.283z"/>
			<path fill="#86BE26" d="M3.719,9.778c-0.604,0-1.094,0.456-1.094,1.018v0.157c0,0.562,0.49,1.018,1.094,1.018
				s1.094-0.456,1.094-1.018v-0.157C4.813,10.233,4.323,9.778,3.719,9.778z"/>
			<path fill="#86BE26" d="M3.719,19.1c-0.604,0-1.094,0.456-1.094,1.018v1.018c0,0.562,0.49,1.018,1.094,1.018
				s1.094-0.456,1.094-1.018v-1.018C4.813,19.556,4.323,19.1,3.719,19.1z"/>
			<path fill="#86BE26" d="M3.719,34.374c-0.604,0-1.094,0.456-1.094,1.018v1.018c0,0.562,0.49,1.018,1.094,1.018
				s1.094-0.456,1.094-1.018v-1.018C4.813,34.83,4.323,34.374,3.719,34.374z"/>
			<path fill="#86BE26" d="M3.719,14.009c-0.604,0-1.094,0.456-1.094,1.018v1.018c0,0.562,0.49,1.018,1.094,1.018
				s1.094-0.456,1.094-1.018v-1.018C4.813,14.465,4.323,14.009,3.719,14.009z"/>
			<path fill="#86BE26" d="M3.719,39.466c-0.604,0-1.094,0.456-1.094,1.018v1.018c0,0.562,0.49,1.018,1.094,1.018
				s1.094-0.456,1.094-1.018v-1.018C4.813,39.922,4.323,39.466,3.719,39.466z"/>
			<path fill="#86BE26" d="M34.479,47.736h-1.094c-0.604,0-1.094,0.456-1.094,1.018c0,0.562,0.49,1.018,1.094,1.018h1.094
				c0.604,0,1.094-0.456,1.094-1.018C35.572,48.192,35.083,47.736,34.479,47.736z"/>
			<path fill="#86BE26" d="M23.541,47.736h-1.094c-0.604,0-1.094,0.456-1.094,1.018c0,0.562,0.49,1.018,1.094,1.018h1.094
				c0.604,0,1.094-0.456,1.094-1.018C24.635,48.192,24.145,47.736,23.541,47.736z"/>
			<path fill="#86BE26" d="M29.01,47.736h-1.094c-0.604,0-1.094,0.456-1.094,1.018c0,0.562,0.49,1.018,1.094,1.018h1.094
				c0.604,0,1.094-0.456,1.094-1.018C30.104,48.192,29.614,47.736,29.01,47.736z"/>
			<path fill="#86BE26" d="M18.072,47.736h-1.094c-0.604,0-1.094,0.456-1.094,1.018c0,0.562,0.49,1.018,1.094,1.018h1.094
				c0.604,0,1.094-0.456,1.094-1.018C19.166,48.192,18.676,47.736,18.072,47.736z"/>
			<path fill="#86BE26" d="M39.947,47.736h-1.094c-0.604,0-1.094,0.456-1.094,1.018c0,0.562,0.49,1.018,1.094,1.018h1.094
				c0.604,0,1.094-0.456,1.094-1.018C41.041,48.192,40.551,47.736,39.947,47.736z"/>
			<path fill="#86BE26" d="M12.604,47.736H11.51c-0.604,0-1.094,0.456-1.094,1.018c0,0.562,0.49,1.018,1.094,1.018h1.094
				c0.604,0,1.094-0.456,1.094-1.018C13.697,48.192,13.208,47.736,12.604,47.736z"/>
			<path fill="#86BE26" d="M44.491,47.736h-0.169c-0.604,0-1.094,0.456-1.094,1.018c0,0.562,0.49,1.018,1.094,1.018h0.169
				c0.604,0,1.094-0.456,1.094-1.018C45.585,48.192,45.095,47.736,44.491,47.736z"/>
			<path fill="#86BE26" d="M34.479,2.524h-1.094c-0.604,0-1.094,0.456-1.094,1.018s0.49,1.018,1.094,1.018h1.094
				c0.604,0,1.094-0.456,1.094-1.018S35.083,2.524,34.479,2.524z"/>
			<path fill="#86BE26" d="M29.01,2.524h-1.094c-0.604,0-1.094,0.456-1.094,1.018s0.49,1.018,1.094,1.018h1.094
				c0.604,0,1.094-0.456,1.094-1.018S29.614,2.524,29.01,2.524z"/>
			<path fill="#86BE26" d="M44.491,2.524h-0.169c-0.604,0-1.094,0.456-1.094,1.018s0.49,1.018,1.094,1.018h0.169
				c0.604,0,1.094-0.456,1.094-1.018S45.095,2.524,44.491,2.524z"/>
			<path fill="#86BE26" d="M39.947,2.524h-1.094c-0.604,0-1.094,0.456-1.094,1.018s0.49,1.018,1.094,1.018h1.094
				c0.604,0,1.094-0.456,1.094-1.018S40.551,2.524,39.947,2.524z"/>
			<path fill="#86BE26" d="M23.541,2.524h-1.094c-0.604,0-1.094,0.456-1.094,1.018s0.49,1.018,1.094,1.018h1.094
				c0.604,0,1.094-0.456,1.094-1.018S24.145,2.524,23.541,2.524z"/>
			<path fill="#86BE26" d="M18.072,2.524h-1.094c-0.604,0-1.094,0.456-1.094,1.018s0.49,1.018,1.094,1.018h1.094
				c0.604,0,1.094-0.456,1.094-1.018S18.676,2.524,18.072,2.524z"/>
			<path fill="#86BE26" d="M12.604,2.524H11.51c-0.604,0-1.094,0.456-1.094,1.018s0.49,1.018,1.094,1.018h1.094
				c0.604,0,1.094-0.456,1.094-1.018S13.208,2.524,12.604,2.524z"/>
			<path fill="#86BE26" d="M17.413,22.191c-0.204-0.189-0.486-0.298-0.773-0.298c-0.289,0-0.57,0.109-0.773,0.298
				c-0.205,0.189-0.32,0.451-0.32,0.72c0,0.268,0.116,0.531,0.32,0.72c0.203,0.189,0.485,0.298,0.773,0.298
				c0.288,0,0.57-0.109,0.773-0.298c0.203-0.189,0.32-0.452,0.32-0.72C17.733,22.643,17.616,22.381,17.413,22.191z"/>
			<path fill="#86BE26" d="M22.389,6.636h-4.5c-1.292,0-2.344,0.979-2.344,2.182v10.563c0,0.562,0.49,1.018,1.094,1.018
				s1.094-0.456,1.094-1.018v-4.425h4.813v20.566h-4.813v-8.64c0-0.562-0.49-1.018-1.094-1.018s-1.094,0.456-1.094,1.018v9.658
				c0,0.14,0.031,0.279,0.092,0.408l3.5,7.448c0.174,0.371,0.567,0.61,1.002,0.61c0.435,0,0.828-0.24,1.002-0.61l3.5-7.448
				c0.061-0.129,0.092-0.268,0.092-0.408V8.818C24.733,7.615,23.681,6.636,22.389,6.636z M20.139,41.448l-1.828-3.889h3.655
				L20.139,41.448z M22.545,12.92h-4.813v0V8.818c0-0.08,0.07-0.146,0.156-0.146h4.5c0.086,0,0.156,0.065,0.156,0.146V12.92z"/>
		</g>
	</g>
</g>
</svg>
